<svg width="16" height="16" viewBox="0 0 16 16" fill="none" xmlns="http://www.w3.org/2000/svg">
<path d="M1.08398 2.19299H14.916V13.807H1.08398V2.19299Z" stroke="white" stroke-linejoin="bevel"/>
<path d="M1.24805 10.679H14.752" stroke="white"/>
<path d="M5.74328 7.1448L2.33042 5.6608V4.839L5.74328 3.36179V4.32961L3.36277 5.23971L5.74328 6.18377V7.1448ZM9.87608 7.71191H8.98975V7.18216C8.84259 7.38817 8.66827 7.54212 8.46678 7.644C8.26756 7.74361 8.06607 7.79342 7.86232 7.79342C7.44802 7.79342 7.09258 7.62702 6.79601 7.29422C6.5017 6.95916 6.35454 6.49279 6.35454 5.89512C6.35454 5.28386 6.4983 4.81975 6.78582 4.5028C7.07334 4.18359 7.4367 4.02398 7.8759 4.02398C8.27888 4.02398 8.62752 4.19151 8.92183 4.52658V2.73355H9.87608V7.71191ZM7.32916 5.83059C7.32916 6.21546 7.38236 6.49392 7.48877 6.66598C7.64272 6.91501 7.85779 7.03953 8.13399 7.03953C8.35359 7.03953 8.54036 6.94671 8.69431 6.76107C8.84825 6.57316 8.92523 6.29357 8.92523 5.92228C8.92523 5.50799 8.85052 5.21028 8.7011 5.02917C8.55168 4.84579 8.36038 4.7541 8.1272 4.7541C7.9008 4.7541 7.71063 4.84466 7.55669 5.02577C7.405 5.20462 7.32916 5.47289 7.32916 5.83059ZM10.6435 7.1482V6.18716L13.0275 5.2499L10.6435 4.32282V3.36858L14.0598 4.84579V5.6608L10.6435 7.1482Z" fill="white"/>
</svg>
